<svg xmlns="http://www.w3.org/2000/svg" width="32" height="32" fill="none" viewBox="0 0 32 32">
  <g clip-path="url(#a)">
    <path fill="#00A369" d="M2.438 17.938h11.624v11.625A1.94 1.94 0 0 0 16 31.5a1.94 1.94 0 0 0 1.938-1.938V17.938h11.625A1.94 1.94 0 0 0 31.5 16a1.94 1.94 0 0 0-1.938-1.938H17.938V2.438A1.94 1.94 0 0 0 16 .5a1.94 1.94 0 0 0-1.938 1.938v11.624H2.438A1.94 1.94 0 0 0 .5 16a1.94 1.94 0 0 0 1.938 1.938Z"/>
  </g>
  <defs>
    <clipPath id="a">
      <path fill="#fff" d="M0 0h32v32H0z"/>
    </clipPath>
  </defs>
</svg>
