<svg xmlns="http://www.w3.org/2000/svg" width="32" height="32" fill="none" viewBox="0 0 32 32">
  <path fill="#A31D00" d="M12.003 2.996a3.026 3.026 0 0 0-3.005 3.006v.996H4.002a3.016 3.016 0 0 0-2.998 3.003v2c0 1.136.642 2.174 1.654 2.68l.338.17v11.146a3.026 3.026 0 0 0 3.006 3.005h19.995a3.026 3.026 0 0 0 3.005-3.005V14.85l.34-.17A2.995 2.995 0 0 0 30.994 12v-2c0-1.645-1.35-3.003-2.995-3.003H23v-.996a3.024 3.024 0 0 0-3.004-3.006h-7.994Zm0 2h7.994a.985.985 0 0 1 1.004 1.006v.996H10.997v-.996a.986.986 0 0 1 1.006-1.006ZM4.002 8.998h23.997a.991.991 0 0 1 1.003 1.004v2c0 .377-.218.723-.56.894-3.998 2-7.997 3.998-11.995 6a.992.992 0 0 1-.895 0c-3.998-2.002-7.995-4-11.994-6A1.006 1.006 0 0 1 2.996 12v-2a.993.993 0 0 1 1.006-1.003Zm11.997 6.001a1 1 0 1 0 0 2 1 1 0 0 0 0-2Zm-11.001.852c3.218 1.61 6.436 3.22 9.654 4.832a3.02 3.02 0 0 0 2.695 0l9.656-4.832v10.146A.985.985 0 0 1 25.997 27H6.002a.983.983 0 0 1-1.004-1.004V15.85Z"/>
</svg>
