<svg xmlns="http://www.w3.org/2000/svg" width="32" height="32" fill="none" viewBox="0 0 32 32">
  <path stroke="#00A372" stroke-miterlimit="10" stroke-width="1.7" d="M9.28 27.6a4.48 4.48 0 1 0 0-8.96 4.48 4.48 0 0 0 0 8.96Zm16.52-14h-7.2c-.48 0-.8-.32-.8-.8V5.6c0-.48.32-.8.8-.8h7.2c.48 0 .8.32.8.8v7.2c0 .48-.32.8-.8.8Z"/>
  <path fill="#00A372" d="M25.8 27.6c-.16 0-.32 0-.48-.16l-7.36-7.36a.773.773 0 0 1 0-1.12c.32-.32.8-.32 1.12 0l7.36 7.36c.32.32.32.8 0 1.12-.16.16-.32.16-.64.16Z"/>
  <path fill="#00A372" d="M18.44 27.6c.16 0 .32 0 .48-.16l7.36-7.36c.32-.32.32-.8 0-1.12a.773.773 0 0 0-1.12 0l-7.36 7.36c-.32.32-.32.8 0 1.12.32.16.48.16.64.16Z"/>
  <path stroke="#00A372" stroke-miterlimit="10" stroke-width="1.7" d="M12.96 13.6H5.6c-.64 0-.96-.48-.8-.96l3.68-7.36c.32-.48 1.12-.48 1.28 0l3.68 7.36c.32.48 0 .96-.48.96Z"/>
</svg>
