<svg xmlns="http://www.w3.org/2000/svg" width="32" height="32" fill="none" viewBox="0 0 32 32">
  <path fill="#00A3A3" d="M11.154 4.003c-3.935 0-7.152 3.186-7.152 7.101.037.974.2 2.061.398 2.903H2.996c-1.363-.03-1.363 2.03 0 2h2.03c1.752 4.553 5.673 9.106 10.483 11.86a1 1 0 0 0 .988 0c3.18-1.82 6.015-4.552 8.084-7.542a22.088 22.088 0 0 0 2.35-4.319h2.072c1.363.03 1.363-2.03 0-2h-1.418c.264-1.008.4-1.948.414-2.902 0-3.915-3.22-7.1-7.154-7.1a7.183 7.183 0 0 0-4.851 1.884 7.17 7.17 0 0 0-4.84-1.885Zm0 2.002c1.594 0 3.062.72 4.023 1.91a1 1 0 0 0 1.485.08c1.24-1.089 2.785-1.967 4.183-1.99 2.816 0 5.073 2.201 5.146 4.963-.063 1.07-.227 2.173-.482 3.039H21a1 1 0 0 0-.709.287l-1.02 1.02-1.378-2.754a1 1 0 0 0-1.787 0l-1.004 2.007-1.174-2.937a1 1 0 0 0-1.763-.178l-1.7 2.555h-3.95c-.286-1.065-.478-2.11-.504-3.084.096-2.74 2.341-4.918 5.142-4.918Zm1.623 8.134 1.293 3.233c.318.801 1.433.851 1.822.082l1.107-2.215 1.108 2.215a1 1 0 0 0 1.601.258l1.705-1.706h3.336a20.622 20.622 0 0 1-1.814 3.182c-1.778 2.57-4.282 4.836-6.932 6.48-3.824-2.373-7.023-6.095-8.702-9.662h3.697a1 1 0 0 0 .836-.45l.943-1.417Z"/>
</svg>
