<svg xmlns="http://www.w3.org/2000/svg" width="32" height="32" fill="none" viewBox="0 0 32 32">
  <path fill="#A30089" d="M25.843 26.722a1.11 1.11 0 0 1-.688-.239l-7.82-6.14a1.113 1.113 0 0 1-.426-.875v-10.2c0-.341.157-.664.425-.874l7.82-6.143a1.115 1.115 0 0 1 1.802.876v22.482a1.113 1.113 0 0 1-1.113 1.113Zm-6.708-7.796 5.595 4.394V5.416L19.135 9.81v9.116Z"/>
  <path fill="#A30089" d="M18.023 20.553H6.186A6.193 6.193 0 0 1 0 14.367a6.193 6.193 0 0 1 6.186-6.185h11.837c.614 0 1.113.498 1.113 1.114V19.44c0 .614-.499 1.113-1.113 1.113ZM6.186 10.409a3.964 3.964 0 0 0-3.96 3.96 3.965 3.965 0 0 0 3.96 3.96H16.91v-7.92H6.186Z"/>
  <path fill="#A30089" d="M8.592 29.987c-.726 0-1.437-.21-2.06-.617a3.76 3.76 0 0 1-1.634-2.389L3.29 19.338a1.113 1.113 0 0 1 2.179-.458l1.608 7.643c.085.407.324.756.673.983a1.54 1.54 0 0 0 1.169.22 1.559 1.559 0 0 0 1.2-1.842l-1.307-6.215a1.114 1.114 0 0 1 2.179-.458l1.307 6.214a3.79 3.79 0 0 1-3.706 4.562Zm18.974-11.185h-1.724a1.113 1.113 0 0 1 0-2.226h1.724c.59 0 1.143-.23 1.559-.646.418-.418.649-.973.649-1.563a2.21 2.21 0 0 0-2.208-2.208h-1.724a1.113 1.113 0 0 1 0-2.227h1.724A4.439 4.439 0 0 1 32 14.366a4.41 4.41 0 0 1-1.301 3.139 4.396 4.396 0 0 1-3.133 1.297Z"/>
</svg>
