<svg xmlns="http://www.w3.org/2000/svg" width="32" height="32" fill="none" viewBox="0 0 32 32">
  <path fill="#0055A3" d="m28.653 13.587-1.333-.734-12-6.666h-.147a1.41 1.41 0 0 0-.253-.08h-.493a1.56 1.56 0 0 0-.267.08h-.147l-12 6.666a1.333 1.333 0 0 0 0 2.32l3.32 1.84v6.32a4 4 0 0 0 4 4H20a4 4 0 0 0 4-4v-6.32l2.667-1.493v3.813a1.333 1.333 0 1 0 2.666 0v-4.586a1.334 1.334 0 0 0-.68-1.16Zm-7.32 9.746A1.333 1.333 0 0 1 20 24.667H9.333A1.334 1.334 0 0 1 8 23.333v-4.84l6.013 3.334.2.08h.12c.111.014.223.014.334 0 .11.014.222.014.333 0h.12a.626.626 0 0 0 .2-.08l6.013-3.334v4.84Zm-6.666-4.186L5.413 14l9.254-5.147L23.92 14l-9.253 5.147Z"/>
</svg>
