<svg xmlns="http://www.w3.org/2000/svg" width="32" height="33" fill="none" viewBox="0 0 32 33">
  <path fill="#00A32F" d="M25.333 6.67h-2.666A2.67 2.67 0 0 0 20 9.335v4h-8v-4a2.67 2.67 0 0 0-2.667-2.667H6.667A2.67 2.67 0 0 0 4 9.336v10.667a2.67 2.67 0 0 0 2.667 2.666h2.666A2.67 2.67 0 0 0 12 20.003v-4h8v4a2.67 2.67 0 0 0 2.667 2.666h2.666A2.67 2.67 0 0 0 28 20.003V9.336a2.67 2.67 0 0 0-2.667-2.667ZM6.667 20.002V9.336h2.666l.002 10.667H6.667Zm16 0V9.336h2.666l.002 10.667h-2.668Zm6.666-8H32v5.333h-2.667v-5.333ZM0 12.003h2.667v5.333H0v-5.333Z"/>
</svg>
