<svg xmlns="http://www.w3.org/2000/svg" width="32" height="32" fill="none" viewBox="0 0 32 32">
  <path fill="#0069A3" d="M28.707 9.533a1.333 1.333 0 0 0-1.334 0l-4.706 2.32a4 4 0 0 0-4-3.853h-12a4 4 0 0 0-4 4v8a4 4 0 0 0 4 4h12a4 4 0 0 0 4-3.853l4.746 2.373c.182.093.383.143.587.147a1.333 1.333 0 0 0 1.167-.686c.11-.198.167-.421.166-.648V10.667a1.332 1.332 0 0 0-.626-1.134ZM20 20a1.333 1.333 0 0 1-1.333 1.333h-12A1.333 1.333 0 0 1 5.333 20v-8a1.333 1.333 0 0 1 1.334-1.333h12A1.333 1.333 0 0 1 20 12v8Zm6.667-.827-4-2v-2.346l4-2v6.346Z"/>
</svg>
